<svg xmlns="http://www.w3.org/2000/svg" width="256" height="256" viewBox="0 0 256 256"><path fill="#d8c2ab" d="M89 8.5A13.6 13.6 0 1 1 75.4-5.1 13.6 13.6 0 0 1 89 8.5zm40.3-4.6a.8.8 0 0 0-.2.4c-1 1.6-23.3 37.5-53.7 37.5S22.7 5.9 21.8 4.3a.8.8 0 0 1-.2-.4 24.8 24.8 0 0 1 .3-18.4c3.6-8.7 11.7-15.6 24.2-20.7 8.4-3.3 16.4-6.2 29.2-6.6h.3c12.8.4 20.7 3.3 29.1 6.6 12.5 5.1 20.7 12 24.3 20.7a25.3 25.3 0 0 1 .3 18.4zm-14.2 6.8l-8.4-4.5a8.8 8.8 0 0 1-4.3 1 9.8 9.8 0 0 1-9.8-9.8 9.8 9.8 0 0 1 9.8-9.8 9.7 9.7 0 0 1 9.8 8.9l9.7 5.2.7-1a17.7 17.7 0 0 0-.6-12.5q-4.2-10-20.1-16.5c-7.6-3.1-14.9-5.6-26.5-6.1s-18.5 2.9-26.5 6.1C38.4-24 31.6-18.5 28.8-11.8A18.1 18.1 0 0 0 28.3.7l.7 1 9.7-5.2a9.8 9.8 0 0 1 9.7-9 9.9 9.9 0 0 1 9.9 9.9 9.8 9.8 0 0 1-9.9 9.8 9.1 9.1 0 0 1-4.3-1l-8.3 4.5c8.3 10 22.9 23.7 39.6 23.7s31.3-13.7 39.7-23.7zM89 264.5a13.6 13.6 0 1 1-13.6-13.6A13.6 13.6 0 0 1 89 264.5zm40.3-4.6a.8.8 0 0 0-.2.4c-1 1.6-23.3 37.5-53.7 37.5s-52.7-35.9-53.6-37.5a.8.8 0 0 1-.2-.4 24.8 24.8 0 0 1 .3-18.4c3.6-8.7 11.7-15.6 24.2-20.7 8.4-3.3 16.4-6.2 29.2-6.6h.3c12.8.4 20.7 3.3 29.1 6.6 12.5 5.1 20.7 12 24.3 20.7a25.3 25.3 0 0 1 .3 18.4zm-14.2 6.8l-8.4-4.5a8.8 8.8 0 0 1-4.3 1 9.8 9.8 0 1 1 9.8-10.7l9.7 5.2.7-1a17.7 17.7 0 0 0-.6-12.5q-4.2-10-20.1-16.5c-7.6-3.1-14.9-5.6-26.5-6.1s-18.5 2.9-26.5 6.1c-10.5 4.3-17.3 9.8-20.1 16.5a18.1 18.1 0 0 0-.5 12.5l.7 1 9.7-5.2a9.8 9.8 0 0 1 9.7-9 9.9 9.9 0 1 1 0 19.7 9.1 9.1 0 0 1-4.3-1l-8.3 4.5c8.3 10 22.9 23.7 39.6 23.7s31.3-13.7 39.7-23.7zm79-130.2a13.6 13.6 0 1 1-13.5-13.6 13.5 13.5 0 0 1 13.5 13.6zm40.3-4.6a.8.8 0 0 1-.2.4c-.9 1.6-23.2 37.5-53.6 37.5s-52.7-35.9-53.7-37.5a.8.8 0 0 0-.2-.4 25.3 25.3 0 0 1 .3-18.4c3.6-8.7 11.8-15.6 24.3-20.7 8.4-3.3 16.3-6.2 29.1-6.6h.3c12.8.4 20.8 3.3 29.1 6.6q18.9 7.7 24.3 20.7a24.8 24.8 0 0 1 .3 18.4zm-14.2 6.8l-8.3-4.5a9.1 9.1 0 0 1-4.3 1 9.8 9.8 0 1 1 0-19.6 9.7 9.7 0 0 1 9.7 8.9l9.7 5.2.7-1a18.1 18.1 0 0 0-.5-12.5c-2.8-6.7-9.6-12.2-20.1-16.5-7.7-3.1-15-5.6-26.5-6.1s-18.6 2.9-26.5 6.1q-15.9 6.5-20.1 16.5a17.8 17.8 0 0 0-.6 12.5l.7 1 9.7-5.2a9.8 9.8 0 1 1 9.8 10.7 8.8 8.8 0 0 1-4.3-1l-8.4 4.5c8.4 10 22.9 23.7 39.7 23.7s31.3-13.7 39.6-23.7z"/></svg>